<svg xmlns="http://www.w3.org/2000/svg" xmlns:xlink="http://www.w3.org/1999/xlink" width="64" height="64" viewBox="0 0 64 64"><defs><clipPath id="clip"><path d="M30.912256754962243 63.987086025460556C36.81068219501581 64.21592884385103 42.31633704753927 61.36997398188514 47.26905187145036 58.1037672538562C52.20652379022107 54.84761288722788 56.34504242213355 50.59215828934433 59.1781319357999 45.346361701185245C62.16791932985066 39.810420660361615 64.6419745939242 33.66508702565596 63.85097405776522 27.400398930869137C63.05510345750536 21.097140150982973 59.39019794584918 15.487806820947506 54.85600353993703 11.115302342889105C50.57605534042596 6.987977620371965 44.80236545325839 5.392384377639113 39.1731163299685 3.6025566321395583C33.445824691627315 1.7815561298772267 27.484648280483164 -1.307289149237269 21.784640920237727 0.6002156764774966C16.116843127265593 2.4969415854076042 13.361522135557815 8.727082156302924 9.653227282590354 13.481373843002528C6.115266440385185 18.01728549158803 1.7986531767937106 22.1256291529711 0.583139321099864 27.782013994825522C-0.6760914889342933 33.64183536412408 0.11902985075653369 39.93383293926917 2.8233490215360346 45.26416240322537C5.465089101935501 50.47114578699824 10.519869741560118 53.65321358484833 15.33823298269004 56.86493857622296C20.197334196800696 60.10381784372259 25.106859020993774 63.76185242832163 30.912256754962243 63.987086025460556"/></clipPath></defs><g clip-path="url(#clip)"><path d="M28.6,35.8L28.4,36.8L34.2,41.4Z" fill="rgb(99,166,209)" shape-rendering="crispEdges"/><path d="M34.2,41.4L39.6,36.8L28.6,35.8Z" fill="rgb(87,160,206)" shape-rendering="crispEdges"/><path d="M34.2,41.4L38.6,42.9L39.6,36.8Z" fill="rgb(73,150,200)" shape-rendering="crispEdges"/><path d="M39.6,36.8L24,25.8L28.6,35.8Z" fill="rgb(110,175,214)" shape-rendering="crispEdges"/><path d="M28.6,35.8L14.1,25.7L28.4,36.8Z" fill="rgb(133,187,219)" shape-rendering="crispEdges"/><path d="M34.2,41.4L40.6,49.5L38.6,42.9Z" fill="rgb(65,140,195)" shape-rendering="crispEdges"/><path d="M57.3,32.8L50.7,28.6L39.6,36.8Z" fill="rgb(73,139,195)" shape-rendering="crispEdges"/><path d="M28.7,61.3L40.6,49.5L34.2,41.4Z" fill="rgb(66,133,191)" shape-rendering="crispEdges"/><path d="M52.6,47.9L39.6,36.8L38.6,42.9Z" fill="rgb(55,133,191)" shape-rendering="crispEdges"/><path d="M39.6,36.8L50.5,19.7L24,25.8Z" fill="rgb(109,171,211)" shape-rendering="crispEdges"/><path d="M24,25.8L14.1,25.7L28.6,35.8Z" fill="rgb(147,195,223)" shape-rendering="crispEdges"/><path d="M28.4,36.8L28.7,61.3L34.2,41.4Z" fill="rgb(84,149,200)" shape-rendering="crispEdges"/><path d="M40.6,49.5L52.6,47.9L38.6,42.9Z" fill="rgb(46,124,187)" shape-rendering="crispEdges"/><path d="M57.3,32.8L50.5,19.7L50.7,28.6Z" fill="rgb(91,141,193)" shape-rendering="crispEdges"/><path d="M50.7,28.6L50.5,19.7L39.6,36.8Z" fill="rgb(91,151,201)" shape-rendering="crispEdges"/><path d="M24,25.8L23.7,10.6L14.1,25.7Z" fill="rgb(175,209,231)" shape-rendering="crispEdges"/><path d="M52.6,47.9L57.3,32.8L39.6,36.8Z" fill="rgb(53,127,187)" shape-rendering="crispEdges"/><path d="M7.1,48.6L28.7,61.3L28.4,36.8Z" fill="rgb(112,157,204)" shape-rendering="crispEdges"/><path d="M40.6,49.5L54,52.1L52.6,47.9Z" fill="rgb(30,107,176)" shape-rendering="crispEdges"/><path d="M39.8,62.9L54,52.1L40.6,49.5Z" fill="rgb(34,105,174)" shape-rendering="crispEdges"/><path d="M52.6,47.9L63.7,35L57.3,32.8Z" fill="rgb(48,111,172)" shape-rendering="crispEdges"/><path d="M28.7,61.3L39.8,62.9L40.6,49.5Z" fill="rgb(55,114,174)" shape-rendering="crispEdges"/><path d="M50,13.5L46.9,12.6L50.5,19.7Z" fill="rgb(128,162,209)" shape-rendering="crispEdges"/><path d="M50.5,19.7L46.9,12.6L24,25.8Z" fill="rgb(129,177,215)" shape-rendering="crispEdges"/><path d="M46.9,12.6L23.7,10.6L24,25.8Z" fill="rgb(156,197,227)" shape-rendering="crispEdges"/><path d="M4.5,40.6L7.1,48.6L28.4,36.8Z" fill="rgb(140,180,218)" shape-rendering="crispEdges"/><path d="M14.1,25.7L4.5,40.6L28.4,36.8Z" fill="rgb(151,192,224)" shape-rendering="crispEdges"/><path d="M1.1,41L4.5,40.6L14.1,25.7Z" fill="rgb(162,199,228)" shape-rendering="crispEdges"/><path d="M74.2,14L50,13.5L50.5,19.7Z" fill="rgb(118,142,190)" shape-rendering="crispEdges"/><path d="M69.2,37.8L63.7,35L52.6,47.9Z" fill="rgb(41,99,158)" shape-rendering="crispEdges"/><path d="M57.3,32.8L74.2,14L50.5,19.7Z" fill="rgb(98,130,177)" shape-rendering="crispEdges"/><path d="M-0.2,42.3L1.1,41L-7.6,44.6Z" fill="rgb(161,191,224)" shape-rendering="crispEdges"/><path d="M4.5,40.6L-0.2,42.3L7.1,48.6Z" fill="rgb(153,185,221)" shape-rendering="crispEdges"/><path d="M7.1,48.6L12.3,62L28.7,61.3Z" fill="rgb(118,143,193)" shape-rendering="crispEdges"/><path d="M28.7,61.3L37.6,70L39.8,62.9Z" fill="rgb(54,102,156)" shape-rendering="crispEdges"/><path d="M-1,65.8L12.3,62L7.1,48.6Z" fill="rgb(132,149,193)" shape-rendering="crispEdges"/><path d="M36.8,76L37.6,70L34.1,76.6Z" fill="rgb(52,101,155)" shape-rendering="crispEdges"/><path d="M39.8,62.9L57.5,60.8L54,52.1Z" fill="rgb(19,86,156)" shape-rendering="crispEdges"/><path d="M-10.9,24.1L1.1,41L14.1,25.7Z" fill="rgb(183,214,235)" shape-rendering="crispEdges"/><path d="M1.1,41L-0.2,42.3L4.5,40.6Z" fill="rgb(160,192,224)" shape-rendering="crispEdges"/><path d="M37.6,70L57.5,60.8L39.8,62.9Z" fill="rgb(30,85,146)" shape-rendering="crispEdges"/><path d="M54,52.1L69.2,37.8L52.6,47.9Z" fill="rgb(29,95,162)" shape-rendering="crispEdges"/><path d="M64.7,57.5L69.2,37.8L54,52.1Z" fill="rgb(20,80,146)" shape-rendering="crispEdges"/><path d="M63.7,35L74.2,14L57.3,32.8Z" fill="rgb(80,115,162)" shape-rendering="crispEdges"/><path d="M37.6,-5.9L20.3,2L23.7,10.6Z" fill="rgb(191,218,237)" shape-rendering="crispEdges"/><path d="M23.7,10.6L3.4,14.1L14.1,25.7Z" fill="rgb(200,220,239)" shape-rendering="crispEdges"/><path d="M37.6,-5.9L23.7,10.6L46.9,12.6Z" fill="rgb(163,199,228)" shape-rendering="crispEdges"/><path d="M14.5,1.3L3.4,14.1L23.7,10.6Z" fill="rgb(212,228,244)" shape-rendering="crispEdges"/><path d="M57.5,60.8L64.7,57.5L54,52.1Z" fill="rgb(9,73,145)" shape-rendering="crispEdges"/><path d="M34.1,76.6L37.6,70L28.7,61.3Z" fill="rgb(59,105,158)" shape-rendering="crispEdges"/><path d="M37.6,70L58.8,79.8L57.5,60.8Z" fill="rgb(17,73,138)" shape-rendering="crispEdges"/><path d="M57.5,60.8L65.1,62.7L64.7,57.5Z" fill="rgb(9,58,123)" shape-rendering="crispEdges"/><path d="M14.3,84.4L34.1,76.6L28.7,61.3Z" fill="rgb(85,118,163)" shape-rendering="crispEdges"/><path d="M20.3,2L14.5,1.3L23.7,10.6Z" fill="rgb(207,227,242)" shape-rendering="crispEdges"/><path d="M58.8,79.8L65.1,62.7L57.5,60.8Z" fill="rgb(8,55,118)" shape-rendering="crispEdges"/><path d="M84.8,49.9L79.9,37.4L69.2,37.8Z" fill="rgb(37,92,150)" shape-rendering="crispEdges"/><path d="M-10.9,24.1L-7.6,44.6L1.1,41Z" fill="rgb(171,203,230)" shape-rendering="crispEdges"/><path d="M-0.2,42.3L-7.6,44.6L7.1,48.6Z" fill="rgb(158,185,221)" shape-rendering="crispEdges"/><path d="M34.1,76.6L37.8,78.3L36.8,76Z" fill="rgb(52,101,155)" shape-rendering="crispEdges"/><path d="M36.8,76L37.8,78.3L37.6,70Z" fill="rgb(49,99,154)" shape-rendering="crispEdges"/><path d="M-1,-9.5L-3,14.8L3.4,14.1Z" fill="rgb(237,245,252)" shape-rendering="crispEdges"/><path d="M3.4,14.1L-3,14.8L14.1,25.7Z" fill="rgb(210,228,243)" shape-rendering="crispEdges"/><path d="M50.3,-11.4L46.9,12.6L50,13.5Z" fill="rgb(145,172,214)" shape-rendering="crispEdges"/><path d="M50.3,-11.4L37.6,-5.9L46.9,12.6Z" fill="rgb(158,186,221)" shape-rendering="crispEdges"/><path d="M20.3,2L15.7,-11.4L14.5,1.3Z" fill="rgb(221,234,246)" shape-rendering="crispEdges"/><path d="M-7.6,44.6L-1,65.8L7.1,48.6Z" fill="rgb(149,168,210)" shape-rendering="crispEdges"/><path d="M12.3,62L14.3,84.4L28.7,61.3Z" fill="rgb(104,126,169)" shape-rendering="crispEdges"/><path d="M34.1,76.6L14.3,84.4L37.8,78.3Z" fill="rgb(75,113,161)" shape-rendering="crispEdges"/><path d="M-3,14.8L-10.9,24.1L14.1,25.7Z" fill="rgb(209,229,242)" shape-rendering="crispEdges"/><path d="M84.8,49.9L69.2,37.8L64.7,57.5Z" fill="rgb(21,79,143)" shape-rendering="crispEdges"/><path d="M82.8,28.7L74.2,14L63.7,35Z" fill="rgb(84,117,163)" shape-rendering="crispEdges"/><path d="M82.8,28.7L63.7,35L69.2,37.8Z" fill="rgb(58,105,157)" shape-rendering="crispEdges"/><path d="M-22.5,37.8L-13.3,48.1L-7.6,44.6Z" fill="rgb(160,189,223)" shape-rendering="crispEdges"/><path d="M-7.6,44.6L-13.3,48.1L-1,65.8Z" fill="rgb(149,168,210)" shape-rendering="crispEdges"/><path d="M74.2,14L70.2,4.2L50,13.5Z" fill="rgb(119,133,174)" shape-rendering="crispEdges"/><path d="M-1.9,76.7L7.6,79.6L-1,65.8Z" fill="rgb(132,141,178)" shape-rendering="crispEdges"/><path d="M-1,65.8L7.6,79.6L12.3,62Z" fill="rgb(125,136,176)" shape-rendering="crispEdges"/><path d="M37.8,78.3L58.8,79.8L37.6,70Z" fill="rgb(30,86,147)" shape-rendering="crispEdges"/><path d="M77.9,70.2L84.8,49.9L64.7,57.5Z" fill="rgb(9,58,121)" shape-rendering="crispEdges"/><path d="M67.7,85.7L58.8,79.8L37.8,78.3Z" fill="rgb(11,66,133)" shape-rendering="crispEdges"/><path d="M79.9,37.4L82.8,28.7L69.2,37.8Z" fill="rgb(56,103,157)" shape-rendering="crispEdges"/><path d="M74.2,14L82.2,3.1L70.2,4.2Z" fill="rgb(124,136,176)" shape-rendering="crispEdges"/><path d="M7.6,79.6L14.3,84.4L12.3,62Z" fill="rgb(117,132,174)" shape-rendering="crispEdges"/><path d="M70.2,4.2L50.3,-11.4L50,13.5Z" fill="rgb(141,157,202)" shape-rendering="crispEdges"/><path d="M37.6,-5.9L15.7,-11.4L20.3,2Z" fill="rgb(202,225,240)" shape-rendering="crispEdges"/><path d="M15,-23.3L15.7,-11.4L34.9,-27.6Z" fill="rgb(208,229,242)" shape-rendering="crispEdges"/><path d="M-14.2,10.1L-13.3,13.3L-3,14.8Z" fill="rgb(228,238,249)" shape-rendering="crispEdges"/><path d="M-3,14.8L-13.3,13.3L-10.9,24.1Z" fill="rgb(219,233,246)" shape-rendering="crispEdges"/><path d="M-1,-9.5L3.4,14.1L14.5,1.3Z" fill="rgb(235,243,251)" shape-rendering="crispEdges"/><path d="M-10.9,24.1L-22.5,37.8L-7.6,44.6Z" fill="rgb(174,205,231)" shape-rendering="crispEdges"/><path d="M-28,75.2L-1.9,76.7L-1,65.8Z" fill="rgb(135,142,179)" shape-rendering="crispEdges"/><path d="M7.6,79.6L6.9,84.9L14.3,84.4Z" fill="rgb(120,134,174)" shape-rendering="crispEdges"/><path d="M77.9,70.2L64.7,57.5L65.1,62.7Z" fill="rgb(8,49,109)" shape-rendering="crispEdges"/><path d="M79.9,37.4L86.6,30.7L82.8,28.7Z" fill="rgb(62,107,159)" shape-rendering="crispEdges"/><path d="M70.2,4.2L53.1,-12.8L50.3,-11.4Z" fill="rgb(143,157,199)" shape-rendering="crispEdges"/><path d="M50.3,-11.4L51.2,-16.6L37.6,-5.9Z" fill="rgb(156,183,220)" shape-rendering="crispEdges"/><path d="M15.7,-11.4L8.4,-10.8L14.5,1.3Z" fill="rgb(227,238,249)" shape-rendering="crispEdges"/><path d="M84.8,49.9L86.6,30.7L79.9,37.4Z" fill="rgb(43,96,152)" shape-rendering="crispEdges"/><path d="M82.8,28.7L82.2,3.1L74.2,14Z" fill="rgb(111,128,172)" shape-rendering="crispEdges"/><path d="M-14.7,1.9L-14.2,10.1L-3,14.8Z" fill="rgb(233,242,251)" shape-rendering="crispEdges"/><path d="M-13.3,13.3L-22.5,37.8L-10.9,24.1Z" fill="rgb(200,224,239)" shape-rendering="crispEdges"/><path d="M-1.9,76.7L6.9,84.9L7.6,79.6Z" fill="rgb(128,138,177)" shape-rendering="crispEdges"/><path d="M-14.2,10.1L-22.5,37.8L-13.3,13.3Z" fill="rgb(212,230,243)" shape-rendering="crispEdges"/><path d="M-13.3,48.1L-23.6,50.1L-1,65.8Z" fill="rgb(147,164,208)" shape-rendering="crispEdges"/><path d="M75.8,78.7L77.9,70.2L65.1,62.7Z" fill="rgb(8,48,107)" shape-rendering="crispEdges"/><path d="M54.4,-19.6L51.2,-16.6L53.1,-12.8Z" fill="rgb(149,168,210)" shape-rendering="crispEdges"/><path d="M53.1,-12.8L51.2,-16.6L50.3,-11.4Z" fill="rgb(150,171,213)" shape-rendering="crispEdges"/><path d="M15.7,-11.4L15,-23.3L8.4,-10.8Z" fill="rgb(227,238,248)" shape-rendering="crispEdges"/><path d="M8.4,-10.8L-1,-9.5L14.5,1.3Z" fill="rgb(236,244,251)" shape-rendering="crispEdges"/><path d="M-24.9,45L-23.6,50.1L-13.3,48.1Z" fill="rgb(154,180,218)" shape-rendering="crispEdges"/><path d="M-18.5,-11.7L-24.9,45L-22.5,37.8Z" fill="rgb(204,227,240)" shape-rendering="crispEdges"/><path d="M-22.5,37.8L-24.9,45L-13.3,48.1Z" fill="rgb(160,189,223)" shape-rendering="crispEdges"/><path d="M-1,-9.5L-14.7,1.9L-3,14.8Z" fill="rgb(243,249,254)" shape-rendering="crispEdges"/><path d="M-14.2,10.1L-14.7,1.9L-22.5,37.8Z" fill="rgb(221,234,246)" shape-rendering="crispEdges"/><path d="M86.6,30.7L82.2,3.1L82.8,28.7Z" fill="rgb(98,123,167)" shape-rendering="crispEdges"/><path d="M71.5,-16.6L54.4,-19.6L53.1,-12.8Z" fill="rgb(141,152,193)" shape-rendering="crispEdges"/><path d="M67.7,85.7L75.8,78.7L58.8,79.8Z" fill="rgb(8,48,107)" shape-rendering="crispEdges"/><path d="M58.8,79.8L75.8,78.7L65.1,62.7Z" fill="rgb(8,48,107)" shape-rendering="crispEdges"/><path d="M77.9,70.2L79.4,80.5L84.8,49.9Z" fill="rgb(8,48,107)" shape-rendering="crispEdges"/><path d="M14.3,84.4L67.7,85.7L37.8,78.3Z" fill="rgb(41,95,151)" shape-rendering="crispEdges"/><path d="M6.9,84.9L67.7,85.7L14.3,84.4Z" fill="rgb(72,111,161)" shape-rendering="crispEdges"/><path d="M75.6,-6.2L53.1,-12.8L70.2,4.2Z" fill="rgb(135,142,179)" shape-rendering="crispEdges"/><path d="M34.9,-27.6L15.7,-11.4L37.6,-5.9Z" fill="rgb(188,217,236)" shape-rendering="crispEdges"/><path d="M8.4,-10.8L15,-23.3L-1,-9.5Z" fill="rgb(235,243,251)" shape-rendering="crispEdges"/><path d="M82.2,3.1L75.6,-6.2L70.2,4.2Z" fill="rgb(134,142,179)" shape-rendering="crispEdges"/><path d="M34.9,-27.6L37.6,-5.9L51.2,-16.6Z" fill="rgb(163,194,225)" shape-rendering="crispEdges"/><path d="M-1,-9.5L-14.7,-11.1L-14.7,1.9Z" fill="rgb(247,251,255)" shape-rendering="crispEdges"/><path d="M67.7,85.7L79.4,80.5L75.8,78.7Z" fill="rgb(8,48,107)" shape-rendering="crispEdges"/><path d="M75.8,78.7L79.4,80.5L77.9,70.2Z" fill="rgb(8,48,107)" shape-rendering="crispEdges"/><path d="M54.4,-19.6L34.9,-27.6L51.2,-16.6Z" fill="rgb(155,182,219)" shape-rendering="crispEdges"/><path d="M85,-21.2L71.5,-16.6L75.6,-6.2Z" fill="rgb(135,142,179)" shape-rendering="crispEdges"/><path d="M75.6,-6.2L71.5,-16.6L53.1,-12.8Z" fill="rgb(135,142,179)" shape-rendering="crispEdges"/><path d="M54.4,-19.6L85,-21.2L34.9,-27.6Z" fill="rgb(143,156,198)" shape-rendering="crispEdges"/><path d="M-15.8,-12.4L-14.7,-11.1L-1,-9.5Z" fill="rgb(247,251,255)" shape-rendering="crispEdges"/><path d="M-14.7,1.9L-18.5,-11.7L-22.5,37.8Z" fill="rgb(233,242,250)" shape-rendering="crispEdges"/><path d="M15,-23.3L-15.8,-12.4L-1,-9.5Z" fill="rgb(247,251,255)" shape-rendering="crispEdges"/><path d="M-14.7,-11.1L-18.5,-11.7L-14.7,1.9Z" fill="rgb(247,251,255)" shape-rendering="crispEdges"/><path d="M15,-23.3L-18.5,-11.7L-15.8,-12.4Z" fill="rgb(247,251,255)" shape-rendering="crispEdges"/><path d="M-15.8,-12.4L-18.5,-11.7L-14.7,-11.1Z" fill="rgb(247,251,255)" shape-rendering="crispEdges"/><path d="M86.6,30.7L91.4,-4.7L82.2,3.1Z" fill="rgb(120,133,174)" shape-rendering="crispEdges"/><path d="M82.2,3.1L91.4,-4.7L75.6,-6.2Z" fill="rgb(135,142,179)" shape-rendering="crispEdges"/><path d="M84.8,49.9L91.4,-4.7L86.6,30.7Z" fill="rgb(86,118,164)" shape-rendering="crispEdges"/><path d="M-24.9,45L-28,75.2L-23.6,50.1Z" fill="rgb(145,159,203)" shape-rendering="crispEdges"/><path d="M-23.6,50.1L-28,75.2L-1,65.8Z" fill="rgb(135,143,180)" shape-rendering="crispEdges"/><path d="M-1.9,76.7L-26,79.8L6.9,84.9Z" fill="rgb(135,142,179)" shape-rendering="crispEdges"/><path d="M-28,75.2L-26,79.8L-1.9,76.7Z" fill="rgb(135,142,179)" shape-rendering="crispEdges"/><path d="M91.4,-4.7L85,-21.2L75.6,-6.2Z" fill="rgb(135,142,179)" shape-rendering="crispEdges"/><path d="M71.5,-16.6L85,-21.2L54.4,-19.6Z" fill="rgb(135,142,179)" shape-rendering="crispEdges"/></g></svg>